# xmcd
#
# Track frame offsets: 
#        187
#        13860
#        28617
#        31190
#        45000
#        57122
#        80870
#        94392
#        110325
#        124585
#        140720
#
# Disc length: 2234 seconds
#
# Revision: 1
# Processed by: cddbd v1.5.2PL0 Copyright (c) Steve Scherf et al.
# Submitted via: ExactAudioCopy v0.99pb3
#
DISCID=8a08b80b
DTITLE=Plastics - Origato Plastico
DYEAR=1990
DGENRE=Techno
TTITLE0=Ignore
TTITLE1=Diamond Head
TTITLE2=No Good
TTITLE3=Good
TTITLE4=Back To Wigtown
TTITLE5=Cards
TTITLE6=Peace
TTITLE7=Dance in the Metal
TTITLE8=Interior
TTITLE9=Park -  Eight Days A Week
TTITLE10=Desolate
EXTD=YEAR: 1990
EXTT0=
EXTT1=
EXTT2=
EXTT3=
EXTT4=
EXTT5=
EXTT6=
EXTT7=
EXTT8=
EXTT9=
EXTT10=
PLAYORDER=
